# xmcd
#
# Track frame offsets:
#	150
#	19157
#	31607
#	44522
#	62020
#	74517
#	91735
#	102637
#	117300
#	127795
#	140410
#	151987
#	164630
#	174685
#	185062
#	195382
#	208915
#
# Disc length: 2950 seconds
#
# Revision: 0
# Processed by: cddbd v1.5.1PL0 Copyright (c) Steve Scherf et al.
# Submitted via: dBpowerAMP V4.0
#
DISCID=f30b8411
DTITLE=Os Maninhos - Volume III
DYEAR=1900
DGENRE=Lambadão
TTITLE0=Lambadão
TTITLE1=Quero Te Amar
TTITLE2=Dança de Cuiabá
TTITLE3=Oba, Vou Dançar
TTITLE4=Ritmo Caliente
TTITLE5=Toca DJ um Lambadão
TTITLE6=Linda Flor
TTITLE7=Pra Falar que Eu Te Amo
TTITLE8=Cintura Fina
TTITLE9=Venha Rebolar
TTITLE10=Remexe Remexer
TTITLE11=Olele, Olala
TTITLE12=Bate Coxa
TTITLE13=Vamos Amar (Amar Amor)
TTITLE14=Vem Dançar o Lambadão
TTITLE15=Dance o Lambadão
TTITLE16=Você Pediu
EXTD=
EXTT0=
EXTT1=
EXTT2=
EXTT3=
EXTT4=
EXTT5=
EXTT6=
EXTT7=
EXTT8=
EXTT9=
EXTT10=
EXTT11=
EXTT12=
EXTT13=
EXTT14=
EXTT15=
EXTT16=
PLAYORDER=
